PathFileType	4	(X/Y/Z)	Patient4_TMGait_0pt7_02_right_09.trc.trc
DataRate	CameraRate	NumFrames	NumMarkers	Units	OrigDataRate	OrigDataStartFrame	OrigNumFrames
89.171974522293	89.171974522293	5	33	mm	89.171974522293	89	       141
Frame#	Time	Sacral			L.Shoulder			Chest			R.Shoulder			Neck			R.ASIS			L.ASIS			R.Thigh.Superior			R.Thigh.Lateral			R.Thigh.Inferior			R.Patella			L.Thigh.Superior			L.Thigh.Lateral			L.Thigh.Inferior			L.Patella			L.Shank.Superior			L.Shank.Lateral			L.Shank.Inferior			R.Shank.Superior			R.Shank.Lateral			R.Shank.Inferior			R.Heel			R.Midfoot.Superior			R.Midfoot.Lateral			R.Toe			L.Heel			L.Midfoot.Lateral			L.Midfoot.Superior			L.Toe			L.Elbow			L.Wrist			R.Elbow			R.Wrist			
		X1	Y1	Z1	X2	Y2	Z2	X3	Y3	Z3	X4	Y4	Z4	X5	Y5	Z5	X6	Y6	Z6	X7	Y7	Z7	X8	Y8	Z8	X9	Y9	Z9	X10	Y10	Z10	X11	Y11	Z11	X12	Y12	Z12	X13	Y13	Z13	X14	Y14	Z14	X15	Y15	Z15	X16	Y16	Z16	X17	Y17	Z17	X18	Y18	Z18	X19	Y19	Z19	X20	Y20	Z20	X21	Y21	Z21	X22	Y22	Z22	X23	Y23	Z23	X24	Y24	Z24	X25	Y25	Z25	X26	Y26	Z26	X27	Y27	Z27	X28	Y28	Z28	X29	Y29	Z29	X30	Y30	Z30	X31	Y31	Z31	X32	Y32	Z32	X33	Y33	Z33	

89	10.346857142857	781.036026678643	1004.727636345399	468.717879438009	953.677729604687	1418.063008834928	257.156534103037	1075.121735926859	1351.767028031061	406.520054324595	1016.240991982506	1442.312943508372	582.546681976348	977.911255714456	1483.578277789410	406.063966221062	1009.549404880527	934.320876294678	570.968092804013	984.670235778554	950.899882220663	298.459103593895	1049.171846223931	731.337403022514	553.814653104458	971.308720784125	621.686149912171	621.584047329579	1052.493581228459	562.595876866721	547.529112072002	1042.464783965333	451.825607205232	568.502777566960	1058.921625660973	762.828853726934	328.282018168275	988.148561892385	636.169275642448	269.389988575996	1086.278890802326	570.829410510294	329.897365486146	1098.072072082371	499.755895386648	337.462293161635	1073.802427268280	424.597996279378	329.096416651154	990.021273844172	305.799387541698	277.919751966116	1049.627592470233	196.737327148349	345.987518577327	960.855782804374	387.899049689469	573.915961785128	837.567290922860	355.268283668740	634.526664563036	817.006512733630	247.640337990007	584.024418104807	611.230428142292	192.281219109845	556.823224280693	778.937832608013	132.093763457760	596.241544403664	670.150067596046	132.854474170634	629.905057889929	842.076544244980	30.125990930142	620.980580908254	930.717385267312	38.283089799395	388.167418778670	1003.694592230215	35.412470396328	306.160660269530	1086.122777314238	97.374002282792	332.530490573038	1215.041323334928	46.530688488664	302.810392356883	820.181896235208	1084.381662743610	183.476617759924	815.266315213360	823.894335560989	193.311622775840	1125.985331604431	1119.773849918717	694.250421012567	1287.239583268009	1215.379716061464	532.314731202318	
90	10.358071428571	780.441335360885	1005.524245319099	465.909124680599	954.864927033875	1419.004939997470	254.788733555203	1075.074358581082	1352.830270527935	405.361541247810	1014.585523037027	1443.522125038612	580.836961063719	977.638721275126	1484.667746276609	403.750885210795	1008.727150999233	935.348547794037	569.209836329783	984.775160228432	952.107755471925	296.713804519516	1053.427958936213	735.082530461486	552.211631764272	978.702838261418	623.968650402880	620.657180796543	1061.738237689984	566.412786747805	546.887683792011	1053.542696047747	454.681010027859	568.180741227773	1057.056405985855	761.829753862454	325.519671614480	984.460664112292	636.214344235179	267.640833226854	1081.733057338370	569.893251318704	328.336472359052	1092.642224969087	498.938147883298	336.096910577528	1067.969443608665	424.033897059138	327.962234768337	983.582421552116	305.558787669131	277.077227948971	1042.434596241522	196.417113694071	345.544829231875	970.603004775324	391.078543284857	573.299120970510	845.971568684305	361.783646760648	633.028658843535	823.358406008974	254.410649437731	583.234279861738	617.199647793319	206.760464848782	554.247636344415	781.534294869134	138.200787209029	595.524264336017	672.310690685791	144.335031556498	627.971039559405	839.122852345250	30.647278252480	621.391423092837	922.794297855669	38.275747525772	388.099475726318	995.757802957672	35.337732646382	306.086517636350	1078.261415972663	97.217968312530	332.432534849694	1207.173898465554	46.212729722686	302.722748136209	827.393573418752	1082.483452013128	179.961326539313	832.961514787532	821.803349633502	188.843186401788	1115.789007453358	1118.449050006242	695.683715340191	1282.153353175323	1205.298038976923	533.630606242073	
91	10.369285714286	779.749029123018	1006.262011855707	463.197714286078	955.984719109010	1419.901342704814	252.557771650103	1074.919730208691	1353.813080509451	404.354362164991	1012.789154432476	1444.620512914566	579.284872838825	977.309850471875	1485.713852856777	401.584529373272	1007.803675856800	936.390156302527	567.563953276640	984.787611299149	953.226925546471	295.038265979401	1057.437591426806	739.068596541127	550.515526805428	986.040848351397	626.620330749052	619.791078121974	1070.712060763751	570.702876675161	546.149983230523	1064.606182996541	458.086367914645	567.749760415910	1055.126037817025	760.924002964435	323.068632412027	980.824638623776	636.311045178701	266.027807328019	1077.183979385387	569.011536847272	326.934025917356	1087.195458457743	498.148338603272	334.879364340613	1062.145795365381	423.498675161519	326.950563672775	977.189762621918	305.354906679581	276.248852780686	1035.260588240255	196.110383393801	345.136194646411	980.541791875794	394.619807610948	572.646068649458	854.782039598341	368.193368779528	631.508891384923	830.427599815727	261.105442070029	582.312113024851	624.259115991562	220.012736209737	551.505574611463	785.304306247090	144.437148457044	594.644720845563	675.861003857267	155.191000022299	625.897168403004	838.016682704059	32.038235079615	621.760253988313	914.871059388453	38.289376227631	388.020100831118	987.827217946739	35.279267270661	306.009646582397	1070.414439054570	97.058437258494	332.344287218974	1199.312699329249	45.873799985265	302.648464229387	834.955229448155	1080.606470798858	176.361910761604	851.279442596446	820.169012612234	184.293941998906	1104.977166538606	1117.092533734872	697.256635944481	1277.153037901009	1193.812145167387	535.774294771708	
92	10.380500000000	778.961062218837	1006.977465321673	460.556167776006	957.010795725676	1420.764140890766	250.472084539363	1074.654808001123	1354.731949892012	403.474437977868	1010.880984315030	1445.624190441270	577.876404618282	976.942906919511	1486.724039221681	399.573333518009	1006.777582395824	937.473302500175	566.016456058576	984.742047543908	954.263916003905	293.430365780036	1061.153540154461	743.276363890921	548.717371717490	993.263238358846	629.635903187877	618.979138510276	1079.360666960509	575.442973114921	545.324054342530	1075.595143071279	462.024141842095	567.270033306379	1053.171220732438	760.118232112258	320.935624404722	977.243974647016	636.446607427035	264.569182593352	1072.656986229694	568.172972317757	325.682358378772	1081.764718427469	497.384664967044	333.822977587341	1056.354700231168	422.992103505474	326.063949965720	970.842152052587	305.196540072333	275.457412298495	1028.111364133110	195.819312274552	344.764911422325	990.634319807666	398.497964662412	572.016621456493	863.940771368675	374.402431932283	630.021715858943	838.227830574826	267.575502179883	581.313765451300	632.301909824444	231.680482602567	548.727588226529	790.382168202413	150.616955572969	593.648096030681	680.868674412598	165.087387497112	623.778802416567	839.080653692159	34.331841915449	622.028881178705	906.953099062411	38.319553041173	387.931839133954	979.907357422903	35.238765438138	305.931095550736	1062.577741000793	96.904731974738	332.266839778482	1191.456866885898	45.540013857451	302.584042499989	842.903818603275	1078.779581642475	172.671591342315	870.181345972260	819.056760081947	179.707322274340	1093.639632656479	1115.767085714712	698.861009905457	1272.156285080803	1180.905563558423	538.777434396604	
93	10.391714285714	778.081760941294	1007.702120861035	457.960421375295	957.930534785405	1421.603332925759	248.533712530417	1074.281907738050	1355.605073872308	402.701060293678	1008.883740051047	1446.552959877628	576.594335453961	976.550224092374	1487.703624345093	397.717330561051	1005.651768319734	938.616984086005	564.560928646452	984.671044182477	955.227754649989	291.901421170692	1064.553211023976	747.682199852470	546.837439734227	1000.315961810907	632.993733888675	618.221274281617	1087.652384415240	580.593526449099	544.438595565147	1086.452294381424	466.464854320526	566.796828786465	1051.209705456123	759.399389581567	319.111835849276	973.704085628394	636.608816158518	263.267229442404	1068.153807169141	567.362192639314	324.564873817667	1076.356728108208	496.641352120488	332.921372934584	1050.595722845876	422.511656132908	325.292950607019	964.523439973601	305.084964501321	274.715443076414	1020.983175533939	195.545994914501	344.429162157819	1000.848934251134	402.674093076359	571.459397996105	873.401963531997	380.310020357142	628.623036233155	846.770487944572	273.673236237743	580.299050525185	641.230726383162	241.493455125577	546.050122733291	796.876689031002	156.544797349417	592.592699457506	687.373062472074	173.737958861607	621.719148641424	842.554340765129	37.431808598807	622.153409640713	899.042635672603	38.362054657750	387.838162751785	972.000042019461	35.214793750203	305.852636486020	1054.747171299928	96.761481609490	332.199820527100	1183.605001203313	45.228156479090	302.527373008516	851.257996135714	1077.044949044508	168.886822113012	889.620847538094	818.537506301003	175.130561755159	1081.877217478583	1114.540475436068	700.393644257043	1267.046570545914	1166.597211212974	542.665660088851	
